<svg width="720" height="720" viewBox="0 0 720 720" fill="none" xmlns="http://www.w3.org/2000/svg">
  <rect width="720" height="720" rx="28" fill="#fbf7ee"/>
  <rect x="88" y="92" width="544" height="520" rx="34" fill="#fffaf1" stroke="#d7cec0" stroke-width="2"/>
  <g transform="translate(128 144)" fill="#35312d" font-family="Inter, Arial, sans-serif">
    <text font-size="28" font-weight="800">Category and merchant intelligence</text>
    <text y="36" font-size="16" fill="#6d655d">Selection scorecards across product, user, revenue, and service quality</text>
  </g>
  <g transform="translate(126 230)">
    <rect width="152" height="132" rx="24" fill="#edf0e4"/>
    <text x="76" y="58" text-anchor="middle" fill="#35312d" font-family="Inter, Arial, sans-serif" font-size="22" font-weight="800">Product</text>
    <text x="76" y="88" text-anchor="middle" fill="#6d655d" font-family="Inter, Arial, sans-serif" font-size="13">SKU / SPU</text>
  </g>
  <g transform="translate(322 230)">
    <rect width="152" height="132" rx="24" fill="#e7eef1"/>
    <text x="76" y="58" text-anchor="middle" fill="#35312d" font-family="Inter, Arial, sans-serif" font-size="22" font-weight="800">Revenue</text>
    <text x="76" y="88" text-anchor="middle" fill="#6d655d" font-family="Inter, Arial, sans-serif" font-size="13">GMV / ROI</text>
  </g>
  <g transform="translate(224 402)">
    <rect width="152" height="132" rx="24" fill="#f1e4dc"/>
    <text x="76" y="58" text-anchor="middle" fill="#35312d" font-family="Inter, Arial, sans-serif" font-size="22" font-weight="800">User</text>
    <text x="76" y="88" text-anchor="middle" fill="#6d655d" font-family="Inter, Arial, sans-serif" font-size="13">repurchase</text>
  </g>
  <g transform="translate(420 402)">
    <rect width="152" height="132" rx="24" fill="#f5eccd"/>
    <text x="76" y="58" text-anchor="middle" fill="#35312d" font-family="Inter, Arial, sans-serif" font-size="22" font-weight="800">Service</text>
    <text x="76" y="88" text-anchor="middle" fill="#6d655d" font-family="Inter, Arial, sans-serif" font-size="13">7S quality</text>
  </g>
  <path d="M278 296H322M398 362V402M376 468H420M224 402L278 362" stroke="#8fa58a" stroke-width="6" stroke-linecap="round"/>
</svg>
