<svg width="1400" height="880" viewBox="0 0 1400 880" fill="none" xmlns="http://www.w3.org/2000/svg">
  <rect width="1400" height="880" fill="#f8f3e9"/>
  <rect x="58" y="58" width="1284" height="764" rx="42" fill="#fbf8f0" stroke="#d7cec0" stroke-width="2"/>
  <path d="M128 166C230 92 382 91 503 150C605 200 679 202 781 152C899 94 1067 112 1168 195C1268 278 1286 408 1207 513C1115 635 924 670 768 634C623 600 535 627 421 700C298 779 120 717 93 577C65 432 21 258 128 166Z" fill="#edf0e4"/>
  <path d="M789 116C933 92 1130 150 1212 284C1306 438 1195 636 1011 687C855 730 731 643 626 555C514 461 381 438 249 492C156 531 65 461 80 361C101 220 307 137 481 157C600 171 668 137 789 116Z" fill="#e6eff1" fill-opacity=".72"/>
  <path d="M126 673C245 583 410 582 563 639C704 692 826 696 973 638C1093 591 1249 635 1293 748H126Z" fill="#f1dfd7" fill-opacity=".78"/>

  <text x="104" y="128" fill="#35312d" font-family="Inter, Arial, sans-serif" font-size="28" font-weight="700">E-commerce data product operating system</text>
  <text x="104" y="166" fill="#6d655d" font-family="Inter, Arial, sans-serif" font-size="18">From business questions to reusable dashboards, user tags, governance, and decisions</text>

  <g transform="translate(104 246)">
    <rect width="252" height="408" rx="26" fill="#fffaf1" stroke="#d5c9ba" stroke-width="2"/>
    <text x="28" y="46" fill="#35312d" font-family="Inter, Arial, sans-serif" font-size="21" font-weight="700">Business needs</text>
    <text x="28" y="83" fill="#6d655d" font-family="Inter, Arial, sans-serif" font-size="15">Marketing</text>
    <text x="28" y="119" fill="#6d655d" font-family="Inter, Arial, sans-serif" font-size="15">Merchant operations</text>
    <text x="28" y="155" fill="#6d655d" font-family="Inter, Arial, sans-serif" font-size="15">Category selection</text>
    <text x="28" y="191" fill="#6d655d" font-family="Inter, Arial, sans-serif" font-size="15">Executive review</text>
    <text x="28" y="227" fill="#6d655d" font-family="Inter, Arial, sans-serif" font-size="15">Algorithm requirements</text>
    <path d="M32 282H220" stroke="#d7cec0" stroke-width="2"/>
    <text x="28" y="324" fill="#35312d" font-family="Inter, Arial, sans-serif" font-size="17" font-weight="700">Questions</text>
    <text x="28" y="357" fill="#6d655d" font-family="Inter, Arial, sans-serif" font-size="14">Who to target?</text>
    <text x="28" y="383" fill="#6d655d" font-family="Inter, Arial, sans-serif" font-size="14">What to promote?</text>
  </g>

  <g transform="translate(460 182)">
    <rect width="420" height="540" rx="34" fill="#fffdf8" stroke="#cfc5b7" stroke-width="2"/>
    <text x="34" y="50" fill="#35312d" font-family="Inter, Arial, sans-serif" font-size="24" font-weight="700">Data product layer</text>
    <g transform="translate(34 88)">
      <rect width="356" height="78" rx="18" fill="#f1e4dc" stroke="#d9c7bc"/>
      <text x="24" y="33" fill="#35312d" font-family="Inter, Arial, sans-serif" font-size="17" font-weight="700">Metric design</text>
      <text x="24" y="57" fill="#6d655d" font-family="Inter, Arial, sans-serif" font-size="13">GMV, net revenue, coupon cost, ROI</text>
    </g>
    <g transform="translate(34 188)">
      <rect width="356" height="78" rx="18" fill="#edf0e4" stroke="#cbd7c5"/>
      <text x="24" y="33" fill="#35312d" font-family="Inter, Arial, sans-serif" font-size="17" font-weight="700">RFMP user tags</text>
      <text x="24" y="57" fill="#6d655d" font-family="Inter, Arial, sans-serif" font-size="13">16 value groups, lifecycle and preference tags</text>
    </g>
    <g transform="translate(34 288)">
      <rect width="356" height="78" rx="18" fill="#e7eef1" stroke="#c5d4d9"/>
      <text x="24" y="33" fill="#35312d" font-family="Inter, Arial, sans-serif" font-size="17" font-weight="700">BI reporting system</text>
      <text x="24" y="57" fill="#6d655d" font-family="Inter, Arial, sans-serif" font-size="13">Dashboards, report migration, self-service views</text>
    </g>
    <g transform="translate(34 388)">
      <rect width="356" height="78" rx="18" fill="#f5eccd" stroke="#ddcf96"/>
      <text x="24" y="33" fill="#35312d" font-family="Inter, Arial, sans-serif" font-size="17" font-weight="700">Governance and quality</text>
      <text x="24" y="57" fill="#6d655d" font-family="Inter, Arial, sans-serif" font-size="13">Dictionaries, desensitized tables, process rules</text>
    </g>
  </g>

  <g transform="translate(1004 246)">
    <rect width="292" height="408" rx="26" fill="#fffaf1" stroke="#d5c9ba" stroke-width="2"/>
    <text x="28" y="46" fill="#35312d" font-family="Inter, Arial, sans-serif" font-size="21" font-weight="700">Business outcomes</text>
    <g transform="translate(28 84)">
      <text x="0" y="0" fill="#35312d" font-family="Inter, Arial, sans-serif" font-size="32" font-weight="800">15</text>
      <text x="64" y="-2" fill="#6d655d" font-family="Inter, Arial, sans-serif" font-size="15">core tags launched</text>
    </g>
    <g transform="translate(28 146)">
      <text x="0" y="0" fill="#35312d" font-family="Inter, Arial, sans-serif" font-size="32" font-weight="800">16</text>
      <text x="64" y="-2" fill="#6d655d" font-family="Inter, Arial, sans-serif" font-size="15">RFMP value groups</text>
    </g>
    <g transform="translate(28 208)">
      <text x="0" y="0" fill="#35312d" font-family="Inter, Arial, sans-serif" font-size="32" font-weight="800">119+</text>
      <text x="98" y="-2" fill="#6d655d" font-family="Inter, Arial, sans-serif" font-size="15">tables synchronized</text>
    </g>
    <g transform="translate(28 270)">
      <text x="0" y="0" fill="#35312d" font-family="Inter, Arial, sans-serif" font-size="32" font-weight="800">6</text>
      <text x="64" y="-2" fill="#6d655d" font-family="Inter, Arial, sans-serif" font-size="15">dashboards launched</text>
    </g>
    <path d="M28 322H264" stroke="#d7cec0" stroke-width="2"/>
    <text x="28" y="360" fill="#6d655d" font-family="Inter, Arial, sans-serif" font-size="14">Reusable decision tools for targeting,</text>
    <text x="28" y="384" fill="#6d655d" font-family="Inter, Arial, sans-serif" font-size="14">selection, monitoring, and governance.</text>
  </g>

  <path d="M370 438H434" stroke="#8ca2a9" stroke-width="4" stroke-linecap="round"/>
  <path d="M428 428L444 438L428 448" stroke="#8ca2a9" stroke-width="4" stroke-linecap="round" stroke-linejoin="round"/>
  <path d="M894 438H970" stroke="#8ca2a9" stroke-width="4" stroke-linecap="round"/>
  <path d="M964 428L980 438L964 448" stroke="#8ca2a9" stroke-width="4" stroke-linecap="round" stroke-linejoin="round"/>

  <g transform="translate(465 760)">
    <rect width="410" height="46" rx="23" fill="#35312d" fill-opacity=".08"/>
    <text x="28" y="29" fill="#35312d" font-family="Inter, Arial, sans-serif" font-size="15">traffic - user - transaction - coupon - revenue - merchant</text>
  </g>
</svg>
