<svg width="720" height="720" viewBox="0 0 720 720" fill="none" xmlns="http://www.w3.org/2000/svg">
  <rect width="720" height="720" rx="28" fill="#fbf7ee"/>
  <circle cx="360" cy="360" r="276" fill="#edf0e4"/>
  <circle cx="360" cy="360" r="212" fill="#fffaf1" stroke="#d7cec0" stroke-width="2"/>
  <circle cx="360" cy="360" r="116" fill="#35312d"/>
  <text x="360" y="342" text-anchor="middle" fill="#fbf7ee" font-family="Inter, Arial, sans-serif" font-size="30" font-weight="800">RFMP</text>
  <text x="360" y="379" text-anchor="middle" fill="#eadfce" font-family="Inter, Arial, sans-serif" font-size="16">16 value groups</text>
  <g font-family="Inter, Arial, sans-serif" font-weight="700" font-size="20" fill="#35312d">
    <text x="356" y="126" text-anchor="middle">Recency</text>
    <text x="594" y="366" text-anchor="middle">Frequency</text>
    <text x="360" y="609" text-anchor="middle">Monetary</text>
    <text x="120" y="366" text-anchor="middle">Profit</text>
  </g>
  <g stroke="#8fa58a" stroke-width="18" stroke-linecap="round">
    <path d="M360 176A184 184 0 0 1 544 360"/>
    <path d="M544 360A184 184 0 0 1 360 544"/>
    <path d="M360 544A184 184 0 0 1 176 360"/>
    <path d="M176 360A184 184 0 0 1 360 176"/>
  </g>
  <g fill="#c6816d">
    <circle cx="478" cy="221" r="12"/>
    <circle cx="524" cy="449" r="12"/>
    <circle cx="242" cy="499" r="12"/>
    <circle cx="220" cy="252" r="12"/>
  </g>
  <g fill="#35312d" font-family="Inter, Arial, sans-serif" font-size="14">
    <text x="92" y="674">lifecycle tags</text>
    <text x="514" y="674">targeting logic</text>
  </g>
</svg>
