<svg width="720" height="720" viewBox="0 0 720 720" fill="none" xmlns="http://www.w3.org/2000/svg">
  <rect width="720" height="720" rx="28" fill="#fbf7ee"/>
  <rect x="70" y="80" width="580" height="560" rx="34" fill="#fffaf1" stroke="#d7cec0" stroke-width="2"/>
  <text x="108" y="142" fill="#35312d" font-family="Inter, Arial, sans-serif" font-size="29" font-weight="800">SBC data product automation</text>
  <text x="108" y="178" fill="#6d655d" font-family="Inter, Arial, sans-serif" font-size="16">Workflow mapping, lineage, BI monitoring, reconciliation, and experiment support</text>

  <g transform="translate(108 228)">
    <rect width="156" height="96" rx="24" fill="#edf0e4" stroke="#d7cec0"/>
    <text x="28" y="42" fill="#35312d" font-family="Inter, Arial, sans-serif" font-size="17" font-weight="800">Business</text>
    <text x="28" y="68" fill="#6d655d" font-family="Inter, Arial, sans-serif" font-size="14">process map</text>
  </g>

  <g transform="translate(282 228)">
    <rect width="156" height="96" rx="24" fill="#e7eef1" stroke="#d7cec0"/>
    <text x="28" y="42" fill="#35312d" font-family="Inter, Arial, sans-serif" font-size="17" font-weight="800">Data model</text>
    <text x="28" y="68" fill="#6d655d" font-family="Inter, Arial, sans-serif" font-size="14">source and lineage</text>
  </g>

  <g transform="translate(456 228)">
    <rect width="156" height="96" rx="24" fill="#f1e4dc" stroke="#d7cec0"/>
    <text x="28" y="42" fill="#35312d" font-family="Inter, Arial, sans-serif" font-size="17" font-weight="800">BI monitor</text>
    <text x="28" y="68" fill="#6d655d" font-family="Inter, Arial, sans-serif" font-size="14">shared definitions</text>
  </g>

  <path d="M264 276H282" stroke="#94abb5" stroke-width="5" stroke-linecap="round"/>
  <path d="M438 276H456" stroke="#94abb5" stroke-width="5" stroke-linecap="round"/>
  <path d="M186 324V376C186 392 199 405 215 405H325" stroke="#8fa58a" stroke-width="5" stroke-linecap="round"/>
  <path d="M534 324V376C534 392 521 405 505 405H395" stroke="#c6816d" stroke-width="5" stroke-linecap="round"/>

  <g transform="translate(246 374)">
    <rect width="228" height="118" rx="28" fill="#f5eccd" stroke="#d7cec0"/>
    <text x="36" y="48" fill="#35312d" font-family="Inter, Arial, sans-serif" font-size="19" font-weight="800">Automated reporting</text>
    <text x="36" y="78" fill="#6d655d" font-family="Inter, Arial, sans-serif" font-size="14">reconciliation checks</text>
  </g>

  <g transform="translate(122 532)">
    <rect width="206" height="56" rx="18" fill="#edf0e4" stroke="#d7cec0"/>
    <text x="25" y="36" fill="#35312d" font-family="Inter, Arial, sans-serif" font-size="16" font-weight="800">Lifecycle metrics</text>
  </g>

  <g transform="translate(392 532)">
    <rect width="206" height="56" rx="18" fill="#e7eef1" stroke="#d7cec0"/>
    <text x="25" y="36" fill="#35312d" font-family="Inter, Arial, sans-serif" font-size="16" font-weight="800">A/B test support</text>
  </g>

  <path d="M360 492V516" stroke="#35312d" stroke-opacity=".22" stroke-width="4" stroke-linecap="round"/>
  <path d="M360 516H225V532" stroke="#35312d" stroke-opacity=".22" stroke-width="4" stroke-linecap="round"/>
  <path d="M360 516H495V532" stroke="#35312d" stroke-opacity=".22" stroke-width="4" stroke-linecap="round"/>
  <text x="108" y="622" fill="#6d655d" font-family="Inter, Arial, sans-serif" font-size="15">Outcome: shared monitoring definitions and less repeated manual checking</text>
</svg>
