<svg width="1200" height="760" viewBox="0 0 1200 760" fill="none" xmlns="http://www.w3.org/2000/svg">
  <defs>
    <linearGradient id="bg" x1="0" y1="0" x2="1200" y2="760" gradientUnits="userSpaceOnUse">
      <stop stop-color="#F4EFE4"/>
      <stop offset="0.44" stop-color="#FAF7F0"/>
      <stop offset="1" stop-color="#E7ECE9"/>
    </linearGradient>
    <filter id="shadow" x="58" y="58" width="1084" height="646" filterUnits="userSpaceOnUse" color-interpolation-filters="sRGB">
      <feDropShadow dx="0" dy="22" stdDeviation="24" flood-color="#33464F" flood-opacity="0.14"/>
    </filter>
    <pattern id="dots" width="26" height="26" patternUnits="userSpaceOnUse">
      <circle cx="2" cy="2" r="1.3" fill="#33464F" fill-opacity="0.16"/>
    </pattern>
  </defs>
  <rect width="1200" height="760" fill="url(#bg)"/>
  <rect x="70" y="64" width="1060" height="632" rx="34" fill="#FCF9F2" stroke="#35312D" stroke-opacity="0.1"/>
  <rect x="70" y="64" width="1060" height="632" rx="34" fill="url(#dots)" opacity="0.65"/>

  <g filter="url(#shadow)">
    <rect x="124" y="112" width="952" height="536" rx="26" fill="#142027"/>
  </g>

  <text x="168" y="170" fill="#F9F1E7" font-size="34" font-weight="800">Prompt Eval Benchmark</text>
  <text x="170" y="203" fill="#AFC8C6" font-size="17" letter-spacing="2">SCHEMA GROUNDING + FEW-SHOT + RELEASE GATES</text>

  <rect x="164" y="245" width="260" height="312" rx="20" fill="#F8F0E3"/>
  <text x="194" y="289" fill="#3A342E" font-size="30" font-weight="800">V1 Baseline</text>
  <text x="194" y="326" fill="#756D64" font-size="16">keyword rules only</text>
  <rect x="194" y="366" width="178" height="18" rx="9" fill="#E5D9C9"/>
  <rect x="194" y="366" width="32" height="18" rx="9" fill="#C6816D"/>
  <text x="194" y="416" fill="#35312D" font-size="44" font-weight="800">0.182</text>
  <text x="194" y="447" fill="#756D64" font-size="15">overall accuracy</text>
  <text x="194" y="504" fill="#B56F62" font-size="32" font-weight="800">0.773</text>
  <text x="194" y="533" fill="#756D64" font-size="15">hallucination rate</text>

  <rect x="470" y="245" width="260" height="312" rx="20" fill="#F8F0E3"/>
  <text x="500" y="289" fill="#3A342E" font-size="30" font-weight="800">V2 Grounded</text>
  <text x="500" y="326" fill="#756D64" font-size="16">schema boundaries</text>
  <rect x="500" y="366" width="178" height="18" rx="9" fill="#E5D9C9"/>
  <rect x="500" y="366" width="113" height="18" rx="9" fill="#8FA58A"/>
  <text x="500" y="416" fill="#35312D" font-size="44" font-weight="800">0.636</text>
  <text x="500" y="447" fill="#756D64" font-size="15">overall accuracy</text>
  <text x="500" y="504" fill="#5E7F72" font-size="32" font-weight="800">0.000</text>
  <text x="500" y="533" fill="#756D64" font-size="15">hallucination rate</text>

  <rect x="776" y="245" width="260" height="312" rx="20" fill="#F8F0E3"/>
  <text x="806" y="289" fill="#3A342E" font-size="30" font-weight="800">V3 Few-shot</text>
  <text x="806" y="326" fill="#756D64" font-size="16">business examples</text>
  <rect x="806" y="366" width="178" height="18" rx="9" fill="#E5D9C9"/>
  <rect x="806" y="366" width="178" height="18" rx="9" fill="#94ABB5"/>
  <text x="806" y="416" fill="#35312D" font-size="44" font-weight="800">1.000</text>
  <text x="806" y="447" fill="#756D64" font-size="15">controlled benchmark</text>
  <text x="806" y="504" fill="#5D7E8D" font-size="32" font-weight="800">0.000</text>
  <text x="806" y="533" fill="#756D64" font-size="15">hallucination rate</text>

  <path d="M424 402H470" stroke="#E7C878" stroke-width="4" stroke-linecap="round"/>
  <path d="M730 402H776" stroke="#E7C878" stroke-width="4" stroke-linecap="round"/>
  <path d="M452 394L470 402L452 410" stroke="#E7C878" stroke-width="4" stroke-linecap="round" stroke-linejoin="round"/>
  <path d="M758 394L776 402L758 410" stroke="#E7C878" stroke-width="4" stroke-linecap="round" stroke-linejoin="round"/>

  <rect x="164" y="592" width="872" height="40" rx="14" fill="#0D1419" stroke="#94ABB5" stroke-opacity="0.32"/>
  <text x="190" y="618" fill="#F8F0E3" font-size="17">22 Chinese business queries | metric, district, task, schema validity | accuracy + hallucination</text>
  <rect x="856" y="126" width="180" height="52" rx="14" fill="#E7C878"/>
  <text x="884" y="158" fill="#2F2A25" font-size="18" font-weight="800">RELEASE GATE</text>
</svg>
