<svg width="2400" height="1400" viewBox="0 0 2400 1400" fill="none" xmlns="http://www.w3.org/2000/svg">
  <rect width="2400" height="1400" fill="#F6F2E9"/>
  <filter id="paper">
    <feTurbulence type="fractalNoise" baseFrequency=".72" numOctaves="4" seed="18"/>
    <feColorMatrix type="matrix" values="0 0 0 0 0.7 0 0 0 0 0.64 0 0 0 0 0.52 0 0 0 .08 0"/>
  </filter>
  <rect width="2400" height="1400" filter="url(#paper)" opacity=".7"/>
  <g opacity=".72" style="mix-blend-mode:multiply">
    <path d="M-90 1002C232 854 380 955 651 741C903 541 1120 694 1387 452C1618 243 1850 338 2495 122" stroke="#8FAAB8" stroke-width="58" stroke-linecap="round" opacity=".22"/>
    <path d="M-112 1056C260 904 469 1027 715 779C942 550 1199 733 1453 482C1693 245 1929 390 2493 188" stroke="#90AC8E" stroke-width="33" stroke-linecap="round" opacity=".22"/>
    <path d="M-83 1108C233 1014 430 1107 710 863C1014 598 1247 839 1534 585C1770 376 1976 488 2465 314" stroke="#D68C78" stroke-width="13" stroke-linecap="round" opacity=".35"/>
  </g>
  <g opacity=".72" style="mix-blend-mode:multiply">
    <ellipse cx="520" cy="430" rx="330" ry="210" fill="#ECC67C" opacity=".16"/>
    <ellipse cx="1510" cy="310" rx="340" ry="260" fill="#8FAAB8" opacity=".14"/>
    <ellipse cx="1780" cy="970" rx="430" ry="250" fill="#90AC8E" opacity=".12"/>
    <ellipse cx="1000" cy="970" rx="360" ry="230" fill="#D68C78" opacity=".13"/>
  </g>
  <g stroke="#35312D" stroke-opacity=".22" stroke-linecap="round">
    <path d="M270 260C522 365 650 152 857 292C1045 419 1147 297 1300 247" stroke-width="3"/>
    <path d="M1370 1124C1260 894 1464 838 1396 650C1340 495 1500 444 1608 344" stroke-width="2.4"/>
    <path d="M840 180C790 342 880 411 788 530C721 618 762 733 820 830" stroke-width="2.2"/>
    <path d="M1804 584C1934 520 2010 602 2133 536C2226 486 2266 523 2328 492" stroke-width="2"/>
  </g>
  <g opacity=".82" style="mix-blend-mode:multiply">
    <g transform="translate(1560 650) rotate(-12)">
      <path d="M0 190C45 64 108 18 177 0C153 86 105 150 0 190Z" fill="#F6F2E9" stroke="#90AC8E" stroke-width="5"/>
      <path d="M0 190C-20 70 21 7 81-42C89 50 67 124 0 190Z" fill="#F6F2E9" stroke="#8FAAB8" stroke-width="5"/>
      <path d="M0 190C-80 100-90 20-61-54C-3 17 19 94 0 190Z" fill="#F6F2E9" stroke="#D68C78" stroke-width="5"/>
      <path d="M0 190C54 96 31 32 16-42" stroke="#ECC67C" stroke-width="7" stroke-linecap="round"/>
      <circle cx="8" cy="166" r="10" fill="#ECC67C" opacity=".75"/>
    </g>
    <g transform="translate(650 700) rotate(18) scale(.72)">
      <path d="M0 190C45 64 108 18 177 0C153 86 105 150 0 190Z" fill="#F6F2E9" stroke="#90AC8E" stroke-width="5"/>
      <path d="M0 190C-20 70 21 7 81-42C89 50 67 124 0 190Z" fill="#F6F2E9" stroke="#8FAAB8" stroke-width="5"/>
      <path d="M0 190C-80 100-90 20-61-54C-3 17 19 94 0 190Z" fill="#F6F2E9" stroke="#D68C78" stroke-width="5"/>
      <path d="M0 190C54 96 31 32 16-42" stroke="#ECC67C" stroke-width="7" stroke-linecap="round"/>
    </g>
    <g transform="translate(2040 300) rotate(-28) scale(.55)">
      <path d="M0 190C45 64 108 18 177 0C153 86 105 150 0 190Z" fill="#F6F2E9" stroke="#90AC8E" stroke-width="5"/>
      <path d="M0 190C-20 70 21 7 81-42C89 50 67 124 0 190Z" fill="#F6F2E9" stroke="#8FAAB8" stroke-width="5"/>
      <path d="M0 190C-80 100-90 20-61-54C-3 17 19 94 0 190Z" fill="#F6F2E9" stroke="#D68C78" stroke-width="5"/>
    </g>
  </g>
  <g font-family="Georgia, serif" font-style="italic" fill="#35312D" fill-opacity=".18">
    <text x="360" y="1160" font-size="38">Nanning · Shanghai · Uppsala</text>
    <text x="1350" y="210" font-size="32">research traces / lily river / archive map</text>
  </g>
  <g stroke="#35312D" stroke-opacity=".12">
    <rect x="214" y="170" width="520" height="360" rx="18"/>
    <rect x="1290" y="840" width="610" height="380" rx="18"/>
    <path d="M238 242H704M238 314H704M238 386H704" />
    <path d="M1326 930H1848M1326 1010H1848M1326 1090H1848" />
  </g>
</svg>
